<?xml version="1.0" standalone="no"?>
<!DOCTYPE svg PUBLIC "-//W3C//DTD SVG 20010904//EN"
 "http://www.w3.org/TR/2001/REC-SVG-20010904/DTD/svg10.dtd">
<svg version="1.0" xmlns="http://www.w3.org/2000/svg"
 width="800.000000pt" height="800.000000pt" viewBox="0 0 800.000000 800.000000"
 preserveAspectRatio="xMidYMid meet">

<g transform="translate(0.000000,800.000000) scale(0.100000,-0.100000)"
fill="#000000" stroke="none">
<path d="M3650 7990 c-638 -53 -1232 -242 -1755 -558 -155 -94 -324 -212 -345
-242 -56 -79 -75 -182 -48 -261 22 -65 666 -1102 709 -1141 48 -44 114 -68
185 -68 68 0 121 20 197 73 275 195 617 327 962 372 145 19 426 19 565 1 637
-86 1200 -441 1553 -981 69 -106 174 -315 218 -435 48 -132 96 -332 114 -480
23 -177 16 -472 -14 -640 -171 -958 -934 -1681 -1901 -1800 -124 -15 -401 -12
-535 5 -346 46 -687 177 -963 372 -85 60 -137 77 -222 71 -72 -5 -134 -33
-177 -80 -32 -34 -678 -1087 -691 -1127 -18 -52 -14 -140 8 -189 34 -75 57
-98 182 -183 569 -385 1158 -601 1858 -680 175 -20 649 -17 835 5 876 103
1638 454 2290 1053 348 320 669 755 879 1195 204 423 327 865 377 1348 17 161
17 599 0 760 -110 1064 -598 1989 -1416 2685 -590 503 -1362 830 -2160 915
-134 15 -574 21 -705 10z m595 -560 c626 -57 1219 -277 1713 -637 680 -495
1144 -1185 1338 -1990 112 -465 124 -986 33 -1453 -236 -1214 -1099 -2205
-2269 -2608 -395 -135 -763 -190 -1208 -179 -422 10 -781 82 -1162 232 -210
83 -544 256 -538 279 2 7 76 131 166 277 l163 265 114 -58 c415 -212 851 -309
1325 -295 290 9 513 48 782 137 980 325 1689 1169 1850 2201 32 208 32 590 0
798 -129 827 -602 1531 -1316 1957 -306 183 -644 302 -1026 361 -163 25 -576
25 -745 0 -319 -48 -598 -136 -870 -275 l-114 -58 -163 265 c-90 146 -164 270
-166 277 -4 14 165 110 330 189 365 173 778 283 1193 318 95 8 469 6 570 -3z"/>
<path d="M3018 5646 c-154 -41 -240 -194 -197 -349 5 -21 86 -153 180 -293 93
-140 169 -256 169 -259 0 -2 -564 -6 -1252 -8 -1403 -3 -1287 3 -1453 -77
-191 -92 -337 -271 -392 -480 -24 -89 -24 -272 0 -360 57 -211 201 -388 392
-480 166 -80 50 -74 1453 -77 688 -2 1252 -6 1252 -8 0 -3 -76 -119 -169 -259
-94 -140 -175 -272 -180 -293 -38 -135 22 -269 147 -330 l57 -28 644 -3 c436
-2 661 1 697 8 116 24 99 3 634 805 421 632 490 740 501 789 25 115 40 90
-502 903 -535 802 -516 778 -630 802 -76 17 -1290 14 -1351 -3z m1507 -1088
c198 -297 360 -548 360 -558 0 -10 -162 -261 -360 -558 l-360 -541 -278 -1
c-220 0 -277 3 -271 13 5 6 83 125 175 264 139 208 169 261 179 307 22 105
-26 226 -111 283 -84 56 -8 53 -1623 53 -1433 0 -1493 1 -1526 19 -19 10 -48
35 -65 55 -27 34 -30 45 -30 106 0 61 3 72 30 106 17 20 46 45 65 55 33 18 93
19 1526 19 1615 0 1539 -3 1623 53 85 57 133 178 111 283 -10 46 -40 99 -179
307 -92 139 -170 258 -175 265 -6 9 51 12 271 12 l278 -1 360 -541z"/>
</g>
</svg>
