<?xml version="1.0" standalone="no"?>
<!DOCTYPE svg PUBLIC "-//W3C//DTD SVG 20010904//EN"
 "http://www.w3.org/TR/2001/REC-SVG-20010904/DTD/svg10.dtd">
<svg version="1.0" xmlns="http://www.w3.org/2000/svg"
 width="259.000000pt" height="137.000000pt" viewBox="0 0 259.000000 137.000000"
 preserveAspectRatio="xMidYMid meet">

<g transform="translate(0.000000,137.000000) scale(0.100000,-0.100000)"
fill="#000000" stroke="none">
<path d="M458 1005 c-49 -92 -196 -643 -183 -692 8 -34 32 -29 175 37 71 33
141 62 155 66 25 6 35 24 14 24 -7 0 -80 -31 -163 -70 -84 -38 -156 -70 -160
-70 -16 0 2 104 44 260 53 196 108 368 127 398 8 13 13 35 11 50 l-3 27 -17
-30z"/>
<path d="M1817 901 c-9 -21 -27 -78 -41 -126 -14 -48 -33 -96 -41 -105 -8 -9
-15 -26 -15 -37 0 -24 -39 -85 -59 -91 -20 -7 -7 55 20 92 14 18 16 27 8 24
-20 -7 -59 -68 -59 -93 0 -11 6 -30 14 -41 14 -18 16 -18 52 16 l37 35 -7 -28
c-15 -63 -36 -229 -31 -238 13 -19 25 3 25 46 0 81 39 273 74 362 44 114 69
200 61 213 -11 19 -23 10 -38 -29z"/>
<path d="M2130 708 c-11 -18 -20 -43 -20 -55 0 -56 -52 -132 -77 -112 -7 6
-13 17 -13 25 0 7 -5 25 -11 41 l-10 28 -29 -35 c-25 -29 -30 -32 -30 -15 0
32 28 65 56 65 30 0 28 23 -2 28 -13 2 -41 -21 -88 -74 -73 -80 -86 -83 -86
-16 0 20 -4 31 -10 27 -11 -7 -13 -54 -4 -79 8 -22 30 -20 66 5 28 20 30 20
42 3 13 -17 16 -16 46 14 36 36 40 38 40 17 0 -26 23 -65 39 -65 8 0 35 22 60
49 25 27 58 53 74 56 15 4 27 6 27 4 0 -2 -7 -37 -15 -78 -27 -129 -2 -145 76
-46 28 36 59 65 69 65 9 0 29 9 44 21 52 41 25 -48 -43 -140 -71 -96 -92 -150
-98 -253 -5 -75 -3 -88 11 -94 41 -16 83 67 127 252 17 72 39 145 50 163 10
17 41 47 69 67 28 20 49 39 46 41 -7 7 -45 -16 -88 -55 l-40 -37 7 65 7 65
-44 -42 -43 -42 3 52 3 52 -41 -76 c-43 -80 -94 -148 -104 -138 -5 5 1 42 31
176 5 21 3 22 -28 13 -49 -14 -51 -13 -34 20 34 65 2 99 -35 38z m18 -33 c-6
-14 -13 -23 -16 -21 -7 7 9 46 18 46 5 0 4 -11 -2 -25z m192 -378 c-32 -115
-64 -187 -89 -195 -11 -4 -13 11 -10 75 4 83 20 125 92 238 31 48 32 49 35 22
2 -15 -11 -78 -28 -140z"/>
<path d="M1338 700 c-9 -6 -31 -34 -47 -64 -47 -81 -53 -84 -91 -36 -17 22
-38 40 -46 40 -8 0 -17 7 -20 15 -5 11 -15 2 -36 -30 -16 -24 -44 -57 -61 -71
l-32 -27 -3 51 c-3 55 -13 63 -48 37 -27 -21 -44 -18 -74 10 l-27 26 -27 -63
c-15 -35 -38 -76 -52 -93 l-26 -30 6 68 c4 37 9 82 13 100 l6 32 -33 -38 c-40
-46 -72 -47 -80 -3 -7 38 -22 42 -53 14 -37 -33 -42 -63 -17 -88 l21 -21 33
20 c18 12 46 21 61 21 26 0 27 -2 23 -46 -2 -35 1 -49 14 -57 22 -15 51 11 90
81 26 45 33 52 52 45 11 -4 34 -7 50 -8 25 0 31 -5 38 -32 10 -37 31 -42 78
-18 27 14 29 14 35 -7 6 -18 11 -15 37 31 16 28 34 51 39 51 5 0 20 -18 34
-40 28 -44 36 -48 56 -24 7 9 21 13 33 10 14 -4 30 4 49 22 l29 27 -7 -25
c-12 -41 -31 -72 -79 -130 -72 -86 -108 -162 -114 -239 -4 -55 -1 -69 13 -81
45 -38 118 71 156 235 12 50 25 106 30 125 7 28 23 45 79 84 38 27 70 51 70
53 0 12 -33 -3 -78 -37 -29 -22 -55 -40 -58 -40 -2 0 -2 23 2 50 8 60 -3 64
-42 13 -15 -20 -29 -32 -31 -26 -7 19 37 95 58 100 21 6 26 23 7 23 -7 0 -21
-5 -30 -10z m-690 -89 c3 -8 -1 -12 -9 -9 -7 2 -15 10 -17 17 -3 8 1 12 9 9 7
-2 15 -10 17 -17z m-18 -48 c0 -24 -25 -9 -28 17 -3 21 -2 22 12 11 9 -7 16
-20 16 -28z m680 -204 c-25 -97 -75 -208 -97 -216 -9 -4 -22 2 -30 13 -30 40
10 154 93 264 59 79 66 66 34 -61z"/>
</g>
</svg>
